<svg width="12" height="12" viewBox="0 0 12 12" fill="none" xmlns="http://www.w3.org/2000/svg">
<g clip-path="url(#clip0_530_1800)">
<path d="M0.649212 2.60391C0.407806 2.66016 0.187493 2.84532 0.0773371 3.08204C0.0234309 3.20157 0.0117121 3.25313 0.0140559 3.42188C0.0140559 3.79688 -0.210944 3.54375 2.80781 6.56719C4.6289 8.39063 5.52656 9.27422 5.59921 9.31407C5.77031 9.40547 5.96952 9.43829 6.14765 9.40079C6.22734 9.38438 6.34218 9.34454 6.40077 9.31407C6.47343 9.27422 7.37109 8.39063 9.19218 6.56719C12.2109 3.54375 11.9859 3.79688 11.9859 3.42188C11.9859 3.25313 11.9766 3.20157 11.9203 3.07735C11.7234 2.6461 11.1984 2.46329 10.7695 2.67657C10.7086 2.70704 9.86015 3.53907 8.33906 5.05782L5.99999 7.39454L3.66093 5.05782C2.13281 3.53204 1.2914 2.70704 1.23046 2.67657C1.05234 2.58985 0.832025 2.56172 0.649212 2.60391Z" fill="white"/>
</g>
<defs>
<clipPath id="clip0_530_1800">
<rect width="12" height="12" fill="white"/>
</clipPath>
</defs>
</svg>
